/* XPM */
static char *_1350587b5b84eeac31128729d70dce12toWakAQEWKlpJJx[] = {
/* columns rows colors chars-per-pixel */
"64 64 228 2 ",
"   c #2A1E19",
".  c #3A1E17",
"X  c #26211D",
"o  c #2D221E",
"O  c #33231E",
"+  c #3B231D",
"@  c #2C2724",
"#  c #2E2926",
"$  c #2F2A28",
"%  c #332622",
"&  c #3A2621",
"*  c #322926",
"=  c #3B2924",
"-  c #332E2A",
";  c #3B2E2A",
":  c #36312D",
">  c #3A322E",
",  c #3C3431",
"<  c #3E3835",
"1  c #43251D",
"2  c #4C241C",
"3  c #4D2A1D",
"4  c #5E2317",
"5  c #53251C",
"6  c #5B251B",
"7  c #542B1C",
"8  c #5C2B1C",
"9  c #5C2916",
"0  c #612C17",
"q  c #6D2B16",
"w  c #65251A",
"e  c #6B261A",
"r  c #642A1D",
"t  c #6B2B1B",
"y  c #682417",
"u  c #702A17",
"i  c #7A2C16",
"p  c #722719",
"a  c #742A1B",
"s  c #7C2C1A",
"d  c #7A2617",
"f  c #6E3216",
"g  c #6E371E",
"h  c #74331B",
"j  c #7C331D",
"k  c #783917",
"l  c #422721",
"z  c #4C2720",
"x  c #442A23",
"c  c #4B2B23",
"v  c #432E2A",
"b  c #4C2E29",
"n  c #542B23",
"m  c #5C2C23",
"M  c #522F28",
"N  c #4B3224",
"B  c #44312D",
"V  c #4B322C",
"C  c #453025",
"Z  c #5D3225",
"A  c #53342D",
"S  c #5C342B",
"D  c #5C392E",
"F  c #593527",
"G  c #433531",
"H  c #4B3631",
"J  c #433A36",
"K  c #4B3935",
"L  c #443D39",
"P  c #4C3E39",
"I  c #533632",
"U  c #533934",
"Y  c #5C3A33",
"T  c #513C38",
"R  c #5E3935",
"E  c #632D22",
"W  c #6C2C21",
"Q  c #742D22",
"!  c #7C2D20",
"~  c #643124",
"^  c #6E3223",
"/  c #63342A",
"(  c #6C342B",
")  c #663C2D",
"_  c #6B3A2D",
"`  c #633C26",
"'  c #723325",
"]  c #7A3C26",
"[  c #72352B",
"{  c #7D362B",
"}  c #753B2D",
"|  c #7B3A2B",
" . c #7A3223",
".. c #663630",
"X. c #643A33",
"o. c #6B3B33",
"O. c #6E3730",
"+. c #733D34",
"@. c #7A3C32",
"#. c #47403D",
"$. c #53403C",
"%. c #78412C",
"&. c #6B4234",
"*. c #694025",
"=. c #852716",
"-. c #832B16",
";. c #8C2C16",
":. c #822719",
">. c #842C1A",
",. c #8B2B1A",
"<. c #942715",
"1. c #932B16",
"2. c #9B2916",
"3. c #942C1B",
"4. c #9D2C1A",
"5. c #8C3A15",
"6. c #84341B",
"7. c #8C351B",
"8. c #8D3C1D",
"9. c #863618",
"0. c #9C3414",
"q. c #953B15",
"w. c #93321C",
"e. c #9D321B",
"r. c #943B1B",
"t. c #983A18",
"y. c #A42C16",
"u. c #AA2C16",
"i. c #A22E1B",
"p. c #AD2E1A",
"a. c #B42C14",
"s. c #BD2D15",
"d. c #A33216",
"f. c #AD3616",
"g. c #A3341D",
"h. c #A43B1C",
"j. c #AC3A1B",
"k. c #A83A16",
"l. c #B43415",
"z. c #BA3514",
"x. c #BB3B16",
"c. c #BE321A",
"v. c #B33B1A",
"b. c #BC3D19",
"n. c #B43918",
"m. c #852F21",
"M. c #833425",
"N. c #8C3223",
"B. c #823B24",
"V. c #8C3B23",
"C. c #84362A",
"Z. c #843C2D",
"A. c #8C3A29",
"S. c #8F3528",
"D. c #933323",
"F. c #9B3222",
"G. c #943C23",
"H. c #92362A",
"J. c #943B2B",
"K. c #9A3A2A",
"L. c #9C3628",
"P. c #833C32",
"I. c #A23322",
"U. c #A33C28",
"Y. c #A23B22",
"T. c #B53A24",
"R. c #DF3F0F",
"E. c #C12F15",
"W. c #D92E11",
"Q. c #C33214",
"!. c #CC3D13",
"~. c #C73717",
"^. c #D53612",
"/. c #E13610",
"(. c #E2380F",
"). c #894418",
"_. c #974914",
"`. c #995314",
"'. c #A44A14",
"]. c #A94718",
"[. c #B6471A",
"{. c #A65317",
"}. c #B9571D",
"|. c #BE731E",
" X c #B6641C",
".X c #8A4425",
"XX c #9B4422",
"oX c #934129",
"OX c #964524",
"+X c #9B5526",
"@X c #8B4030",
"#X c #8A5128",
"$X c #A14A23",
"%X c #A54229",
"&X c #BC4D20",
"*X c #BB5921",
"=X c #A65726",
"-X c #BF7328",
";X c #CD580F",
":X c #C7550F",
">X c #C34215",
",X c #CE4317",
"<X c #C44719",
"1X c #CB4118",
"2X c #CC4A1A",
"3X c #C54B18",
"4X c #D74C19",
"5X c #CA531A",
"6X c #C9551B",
"7X c #D35D1C",
"8X c #DD5919",
"9X c #D5580E",
"0X c #E1520F",
"qX c #E25816",
"wX c #E34911",
"eX c #D5620C",
"rX c #CE710C",
"tX c #C9651D",
"yX c #DD6319",
"uX c #D36A1D",
"iX c #E4661B",
"pX c #CF5F20",
"aX c #DB6B21",
"sX c #CD7426",
"dX c #E26A21",
"fX c #E67B23",
"gX c #E68527",
"hX c #E68D29",
/* pixels */
"@ @ @ @ @ @ % + t d.n.U.%XaXhXhXgXfX=X%.k - > : : : : - - : - # # o 1 7., - : : - - - 1.n - - - - 6 a.s.M n 3.W.} @ l 4.@.v [ & ",
"@ @ @ @ @ 2 s j.%X&.T ; > o.[.hXhX}.U C -.B - - - - : : : : : : # @ + -.> : : : : - = s W * * @ & p.,Xt p u.p.W.Q = e T.T ; [ w ",
"o @ O 3 s h.%X@.H > - - $ , &.qXgX$XH , w.b > - : - : : : : : : - @ o 9.B : - : - - : d e * @ * 2 !.2Xi.F.| A N.>.z 3.P., * / s ",
"i i w.Y.@XY B - - - - - - * : OXiX{ J > 7.r ; - : : : : : : : - - # o k x * : : - - * d e $ = 5 ;.l.H.@.K - * _ v.4.H.H @ @ b 5X",
"[.J.) B : - - - - : : : - @ - } qXD > - j a = - - : : : : > : : : @ o f 3 - : - $ @ % p p 1 q t.} H , : @ @ @ D 4X4.R * @ @ ; pX",
"H - * $ * - - - - : : : - - * } >XH - * ~ -.= - : : : : : : : - $ @ @ f 8 # $ @ # @ @ -.u.q.].D : : : @ @ @ @ I pXm ; @ $ @ ; g.",
"B # # $ : - : : : : : : - - - } ~.B * @ M w.l - : : : : : : : : $ @ @ q 0 # @ @ @ @ o <.^.OXU @ , : - @ - @ @ S aXb - * $ @ * i.",
"A # # $ - : - : : - : : : - * } [.C $ @ N d.7 * : : : : : : $ $ @ @ @ t f o @ @ o O f f.| > $ : : : : : - @ @ ) aXm ; - - $ $ 3.",
"M # # - : : : : : : : : : - - } Q.C $ @ - d.s * - - - - * $ @ @ @ @ @ 0 W % @ o 1 h.h._ > $ > : : : : : - @ * } dXM.B - - * * Q ",
"6 # # $ : : : : : : : : : : - } Q.B $ @ # ;.0.% $ @ @ @ @ * * & + + + y w % o 4 a.{ D N $ - : : : : : : - * ; Z.3X&X] ; : - @ E ",
"w @ # $ : : : < : : : : : - - _ Q.; $ @ @ u l.% @ @ @ % l z 6 r W a p =.p + w a.C.K > N $ $ : : : : : : - * * Z.Z.@X8.b > - - z ",
"d @ $ $ - : : : : : : > : - - O.Q.; # @ @ 8 n.+ & l 5 w p Q / U H B V ,.:.d s.( J @ @ > : : : : : : > : > * ; V.) P @.W c - : * ",
";.o @ - : : : : > : : > : - - o.Q.+ @ o o 2 f.;.a >.>.E G < : : * * > t i.i.( G @ @ $ $ : : , : : : : : - $ v 8.D ; G @.W v - @ ",
"1.O @ - : : : : : : : > , : - ) Q.9 5 7 f q._.j F B G : - $ $ $ @ $ < n n.( , $ $ @ @ : : : : : < : : : - $ v w.I - - I C.m > * ",
"=.+ @ - : : : : : : : > : - - D R.;X;XeXeXk O , , : - @ $ - - $ @ @ < c _.H - $ @ @ $ : , : : , : : : : - * v 4.V : - : o.! b - ",
"a 6 @ : : : : : : : : : , - - A wX+X#XrX{.= , - @ @ * - - - $ $ $ @ < N ).; @ @ @ $ - : : : , : < : < : - * v y.> - - - G C.p ; ",
"m p & - : : > > > > : : : : - c 0Xg `.:X7 < > # $ $ $ $ : $ $ - $ # , B ).l @ @ # # $ : : : > > : : : : - * x i.; - - : : ..N.b ",
"l =.& - : : : > > : : : : : - x qXeX;X0 , : @ - $ $ : $ - : : $ - - : B ).l @ @ # # - - : : : > : < < : $ - = 4.- - - : : H H.E ",
"+ 1.5 ; : : : : : : : : : : - = qX9Xq.; , : : $ - - $ - - - : - - - : > k 1 @ @ @ @ $ - : : : : < : : : * * 1 ,.- - - - ; > [ ,.",
"2 k.0.e 3 ; : : : : : > : : - & iXq.3 , : $ $ $ - - - - - - - : - $ : , k 1 @ @ @ @ $ - : : : : : : : - @ @ 2 =.* - - : : - B L.",
"2.<Xr.A.e.e.w.i 7 x ; > : : : + iXZ B : # $ : - : - - : - : : : : - - , h 3 O O @ @ $ $ - - : : : : : # # @ 5 :.- - : - : : - ..",
"3.5XF G U +.P.oXh.e.0.1.q 1 ; + 7XC : @ $ : - : - : : - - - : : : - - > g q 4 2 # @ # # # - : : : : $ @ @ % w p - - - : - : - > ",
"E 2XZ : - > G K Y @.J.v.~.;.w -.6XC - # - : : : : - - : : : : - : - # : ^ u.4.3.+ @ @ @ # @ # - : $ $ # @ o q w - - : - - : : - ",
"V b.g > - : > > : , , L P %.G.b.3X> : $ : : : : - - : - - : : : : : - : m e ; A 1.o # @ @ @ @ @ $ # # # @ o s 6 - - : : : : : : ",
"; G.h ; - : > : : : : : : : , K k.V : : : : : : : - : : - : : : : - $ - N 1.+ @ ( t & @ @ @ @ @ @ @ @ @ X O j 6 $ - > : : : : - ",
"- / m.x * - : > : > : : : : $ : d.A : : : : : : : : - : : - : - : : - - C s.<.@ * _ r o X X @ # @ @ @     e 2Xr $ - : : : : > - ",
"- b ,.x - - - > : : : : : : * : 4.A : : : < : : - - : : - : - : - : $ - > v.2Xw O z j 0 . O + O       . y ~.dX6 $ - - > : : : : ",
"* ; m.m $ - - : : : : : > : * ; 3.A > : : : : : - - : - - : : : - - - $ > 8..X[.a.4.e.{.5.-.i i i =.=.y.e.Y.tX3 @ - , - : : : : ",
"- $ ( p % - - : : : : : : : @ ; 1.H > : > > : : : - : : - : : : : - * * B 6.).Y.' I A D *.%.%.| C.{ M.( H N [.3 $ : : : : : : : ",
"- @ M ,.% * - : : : : : : $ @ = 2.I , > : : : : : - : : - : : : - - : $ > 6.2XM., - - - : > > : : : - - $ V [.3 @ $ : : : : : : ",
"* $ ; 3.= @ - - : : - - : - $ ; y.I , > : : : : - : - : : - : - : - : $ > h !.V : @ @ $ $ @ $ $ $ $ @ @ @ N [.x @ $ - : : : - : ",
"$ $ = m.l * $ * : - $ - $ $ $ ; 2.I > - : : < : : : : : : : : : : : : * : 8 ].G $ $ @ $ - - - - * @ * @ @ M k.* $ $ : : : : : - ",
"@ $ $ Q 6 % $ - - : : - - * * = <.H : : : , , : : : : > : : : : : : - $ : N '.V @ @ @ $ : : : : : $ # @ @ A t.% @ * : : : : : $ ",
"@ * ; ( y @ @ $ - - $ $ @ @ @ = <.B - : : : : : , , : : : : : : : - - - : C {.Z : @ @ * : : : : : : - # * D t.O $ $ $ : $ : : : ",
"@ @ $ E <.@ $ $ - @ @ @ @ @ @ + u.x > - : : > > : : : : : : - : : - $ @ : ; `.g > @ @ $ : : : > : : - $ * D q.o @ $ : - : : $ - ",
"$ @ @ w s.n x l O - : $ $ * @ . a.& : : : : : - : : : : - : - , - - - : : - k 9.> @ $ : : : : : : : - @ @ F q.o @ - : : $ - : - ",
"$ @ @ d H.X.o.{ 6.4 l & + O O 2 !.2 * * * * - $ : * $ $ * $ @ @ @ @ $ @ # - 0 {., @ # $ : : : < : : - # # Z q.o @ # $ - : - - $ ",
"@ @ * =.C.> > K $.C.d.5.7.9.9.z.iX5.t 6 1 1 & & % @ O o   % % % & = * & + 1 ). X, @ # : : : : : : - - - * Z q.@ @ @ @ - $ $ $ # ",
"@ @ & 3.@.- @ @ , $.G.].&.&.} G.uX}.j.y.y.i.2.=.p y 9 4 4 9 5 2 2 3 5 5 5 u :X|., # $ - , : : : : : : - # r 0.O @ @ # # # @ # # ",
"@ @ + i...$ $ @ - - K C.X.- > < {.` < J K V S Q 3.e.3.D.D.F.g.h.I.4.4.2.u.<XyXtX: @ # - , : : < : : : - * i ~.9 O O O # # @ @ o ",
"o o 1 i.R $ $ - - - , X.F.b @ , {.*.< $ @ : < #.L < < > > : : , , L #.L L P Y ].x $ @ - : : < : : : : - = Q Z.E.k.1.>.d d -.-.w ",
"=.y.a.p.U * * - : : : > } a l - `.D , * > : $ # @ @ @ - - - - - - * - : - - J C.r : @ - : : : : : : - - & 3.c.[ K &.%..XoXoXK.I.",
"b 3.W.i.K $ - $ - : - : U N.6 ; _.S : @ $ # # @ @ # $ : : : : - : : : - : - < Y 9.; @ - : : : : : : : - & i.M.L < : : : G H H T ",
"< = s m.< - : - : : : : : X.N.1 5.A - @ # # # # @ # - : : : : : : : : : : - - $._.; @ @ : < : : : : : @ l r.K < $ $ - - - - - : ",
": > 6.M.: - : : : : : : : > X.2.z.F : o $ $ $ # $ - : : : : : : : : : : : : : L '.c * $ - > : : : : : @ c r.P : $ - : $ : - : - ",
"- A l._ - : : : : : - : - - : C.(.Z - # $ : : $ $ : : : : : : : : : : : : : : , ).t = @ - > > : : : - @ 7 8.P @ $ $ : : - : - : ",
"> ' Q.A * : : : : : : : > - @ K !.E : @ - - - - : : : : : : - : : : : : : : : > ' h = @ $ > > : : : @ @ 8 B.L @ - : : : : : : : ",
"> k.v.; @ - : : : : : : : - $ G j.~ - # $ - - - : : : : : : : : : : : : : : : : N 5.= @ $ : : : : : @ @ t | L $ - - $ : : - : - ",
"c 7X6.* @ : : : : : : : : : - G f.n : * - - - : : : : : : : : : : : : : : - : - = t.z @ @ $ * - - @ # @ h } J @ : : : : : : : - ",
"g *XZ @ @ : : : : : : : : : - J [.c : - - : : : : - : : - : : : : : : : - : : : > 0.m @ @ @ $ @ - # @ @ -.} < @ : : - : - : : - ",
"+XOXx @ @ : : : : : : : : - - J n.= : $ - : - - : - - : - : - : : : : : : : - : > 0.8 @ @ # @ @ @ @ & 2 a._ < * : : : : : : : - ",
"sX~ & @ $ : : : : : : : : - * G x.% : * - : : - : - : : : : - : - : : : : : : : > 0.8 @ # # @ @ O 2 p y.~.X., @ - : - : - : : & ",
"-X= @ @ * : : , : : : : - # # K ,X3 - * - : : - - : : : : : : : : - : : : : : : > d.u o @ @ @ + p e.A.+.G.X.: - : > : : : - : j ",
"#X% # $ : : : : : : : : - # $ D (.a * * * : : : $ : : : : : : : - - : : : : : - - f.Q.u + . 4 2.p.S v ; .XY : - - - : - : : ; }.",
"C @ @ $ : : : : : : : : : @ : F R.u.x # $ : : - $ : : : : : : * : : : : : - - ; = 2X[.L.=.;.g.V.D.d 5 & r.D - @ > - : : : ; b uX",
"@ @ * : : : : : : : : : - @ : r [.I.a $ $ : : : : - : : : : : : : : : : : : : ; 3.~.C.G X.o.T > G X.{ 4.x.Y - - : > : - : > a tX",
"@ $ - - : : : : : : : : $ @ * 6.V.P.3.= @ - - : : - : : : : : : : : : : - - : t c.oX@X; @ @ @ $ # : G U G.D - $ - : : : - c r.XX",
"@ $ - - * : : : : : : - # # & d.Z.R F.x @ @ - : : : : : : : - : : : : - - : b s.P.&.OXv @ # * $ $ $ @ B t.A @ - : : : - - E >X( ",
"# # - - : : : : : : : $ @ @ = x.{ H 3.n @ # @ - : : : : : : - - : : : : - v =.T.U Y oXb # $ : - : - # H ].V @ - - : : : ; j !.V ",
"# - $ $ : : : : : * @ @ @ @ + ~.E ; [ W * @ # $ : $ - - : : : - - : : : ; >.~.+.: H G.S $ : : : : - * X.D.B @ - - : - : ; d.d.> ",
"@ # - # - : : : : - @ @ @ % = <XE * Z >.* @ @ # @ $ $ - - - $ - $ : - ; W E.J.G : G { m @ : : : : : - / 7.v @ @ - - ; z u z.~ : ",
"@ @ @ # $ : : - - $ @ @ * = 3 >Xa x m 3.= @ @ @ @ @ @ @ @ # @ @ $ - ; z a.L.I - - : ^ W * * : - - : * t 6.= * @ & n W C.U.1.x - ",
"@ @ @ @ @ - - - @ @ * & 3 r ,.4X6.e a u.n @ @ @ @ @ @ @ # # @ @ # $ ; d c...; - : - Z p - : : : : : * f 6.M l & 5 D.( U J.( x - ",
"@ @ @ @ @ # # * * z 6 6.[.8XiXfXiXqXqX0Xw.* @ @ @ @ # @ @ @ @ @ @ * m E.P.G - : - - x =.- : : : : @ o y.p.3.1.p L.v & S K.B M @ "
};
