/* XPM */
static char *c417b69d6d5b4a6ffc4460d20465e255BFHHxpaI48Da4IzU[] = {
/* columns rows colors chars-per-pixel */
"64 64 144 2 ",
"   c #3C1E03",
".  c #3F2004",
"X  c #432203",
"o  c #4C2604",
"O  c #4F2804",
"+  c #452308",
"@  c #4C2608",
"#  c #4F2809",
"$  c #532902",
"%  c #5C2E02",
"&  c #542A09",
"*  c #5B2D0A",
"=  c #5F3003",
"-  c #5F300C",
";  c #643202",
":  c #6B3601",
">  c #6F3801",
",  c #64320B",
"<  c #6B350B",
"1  c #6F380A",
"2  c #743A01",
"3  c #7B3E00",
"4  c #743A0D",
"5  c #7B3D0B",
"6  c #773C10",
"7  c #7B3E10",
"8  c #7F4000",
"9  c #7F400D",
"0  c #874401",
"q  c #874402",
"w  c #824106",
"e  c #844207",
"r  c #874306",
"t  c #874404",
"y  c #834200",
"u  c #884400",
"i  c #894400",
"p  c #894500",
"a  c #884401",
"s  c #894401",
"d  c #894501",
"f  c #8A4500",
"g  c #8B4500",
"h  c #8A4501",
"j  c #8B4501",
"k  c #8B4600",
"l  c #884402",
"z  c #8B4503",
"x  c #8B4602",
"c  c #8C4600",
"v  c #8C4601",
"b  c #8D4601",
"n  c #8D4701",
"m  c #8F4700",
"M  c #8E4701",
"N  c #8D4602",
"B  c #8A4505",
"V  c #8A4506",
"C  c #8E4707",
"Z  c #8A4501",
"A  c #8F4800",
"S  c #8F4807",
"D  c #8F4802",
"F  c #80400A",
"G  c #81400A",
"H  c #844208",
"J  c #81410C",
"K  c #81410D",
"L  c #83420C",
"P  c #80400F",
"I  c #86430C",
"U  c #83410D",
"Y  c #88440A",
"T  c #88440B",
"R  c #8B460B",
"E  c #8E4708",
"W  c #8F470B",
"Q  c #88440C",
"!  c #89440C",
"~  c #88440D",
"^  c #8D470E",
"/  c #8C460E",
"(  c #8F4808",
")  c #8F480C",
"_  c #8F480D",
"`  c #904803",
"'  c #924902",
"]  c #934904",
"[  c #914906",
"{  c #914907",
"}  c #954A04",
"|  c #944A07",
" . c #964B06",
".. c #964B07",
"X. c #924905",
"o. c #994D06",
"O. c #904808",
"+. c #914808",
"@. c #914908",
"#. c #924908",
"$. c #934908",
"%. c #934A08",
"&. c #91490A",
"*. c #944A08",
"=. c #954A08",
"-. c #974C08",
";. c #934A0D",
":. c #954B0D",
">. c #974B0D",
",. c #944A0F",
"<. c #944A0B",
"1. c #984C08",
"2. c #994C08",
"3. c #9B4E0A",
"4. c #9D4E0B",
"5. c #994D0D",
"6. c #994D0E",
"7. c #9C4E0D",
"8. c #9A4D0B",
"9. c #9F5009",
"0. c #854310",
"q. c #864310",
"w. c #874310",
"e. c #874311",
"r. c #874410",
"t. c #844210",
"y. c #894511",
"u. c #8A4510",
"i. c #8A4511",
"p. c #8B4611",
"a. c #8C4610",
"s. c #8C4611",
"d. c #8D4711",
"f. c #8E4711",
"g. c #8E4712",
"h. c #8A4510",
"j. c #8F4812",
"k. c #8F4810",
"l. c #944A10",
"z. c #9B4D11",
"x. c #9F5011",
"c. c #A2510D",
"v. c #A35211",
"b. c #A85411",
/* pixels */
"7 * g.0.r.r.0.g.4 - g.I r.r.0.g.< , j.e.e.e.0.j.- 4 i.e.e.e.0.k.* 5 i.e.e.e.e.e.1 e.e.y.y.0./ 7 * g.0.0.r.r.y.6 - g.r.y.r.e.g.4 ",
"&.; h t 0 0 0 h ! ; n h 0 0 y n U ; m B u u u m 6 > g u u u y $.1 3 u u u u y | F y h y y h y +.; n y u 0 0 h ! ; n y 0 0 y h / ",
"T = y 3 3 8 8 y L ; y 3 8 3 8 y 5 : y 3 3 8 8 u 4 : l 3 8 8 3 u < > y 8 3 8 3 C 5 3 y 3 y y 3 R * y 8 y 3 8 y L ; y 3 8 8 3 y ! ",
"e % y 3 y 3 3 8 5 $ y 2 8 3 3 y > = 8 3 8 3 3 8 ; ; 8 3 3 3 3 y - : 8 3 8 3 3 8 2 2 3 3 3 3 3 5 $ 3 3 3 8 3 3 2 $ y 3 3 3 3 8 5 ",
"@ X & & X = 5 4 1 < 5 5 , , 5 5 < < 5 5 % < 5 5 < 4 5 5 & 1 5 5 < 4 4 5 & 4 5 4 1 4 5 4 % 4 4 4 < 5 5 1 % 5 4 4 1 4 5 < ; 5 4 4 ",
">.>.&.5.r., -.( #.#.C 1.P > 1.C <.+.z 4.5 5 } +.<.+.` 4.1 w <.+.| #.C 7.< C ` ` #.+.C >., #.` +.| | #.&., <.E #.| C | g., 2.C | ",
"3 3 3 8 F ; 8 3 3 3 3 8 5 ; 8 3 3 3 3 y < : 3 3 3 3 3 y < : 3 3 3 3 2 u , 2 3 3 3 3 2 B * 3 3 3 3 3 3 I % 3 3 3 3 3 3 F % y 3 3 ",
"0 y y h I ; A 0 h y u n F : m y u u l m 5 > g l u u y $.1 3 g g h y u } < 8 n u h h u <.; u h h y h y #.; h h h h y h R ; m y 0 ",
"; > : 2 ;   $ $ $ $ $ % X . $ $ $ $ $ %   o % $ $ $ $ %   o % $ $ $ $ %   o $ $ $ $ $ $   $ $ $ $ $ $ $   $ $ & $ $ $ o   $ $ $ ",
"- & l.! g.I L 0.4 * e.L L L L ! , , ~ P U P P i.* < U P U t.5 ~ & 4 I P I P P e.& 5 0.I 0.L 5 t.< t.L L I 7 I 1 * ! t.L L L 0.4 ",
">.; u y y u u h ! ; n y u y y n U : g u y l y m 5 > g l y u y $.1 3 u y u u y } < 3 u y y h y #.5 y h y y u h ! ; n 0 y u y h / ",
"I = y 8 8 8 3 y L = y 8 8 8 y y 5 ; u 8 8 8 3 g 4 : l 8 8 8 3 g < 2 y 8 8 8 3 C , 3 y 8 8 y 3 R 5 8 3 y 3 y y I ; y 3 y y 8 y ! ",
"I % 3 3 3 3 3 3 2 $ y 3 3 3 3 8 < % 8 3 3 3 3 8 ; ; 3 3 3 3 3 8 * : 3 8 3 3 2 y & 2 3 3 3 3 3 8 : 3 3 8 3 2 3 2 $ 8 3 3 3 2 3 5 ",
"1 o & o . & & & & @ & @ X & & & @ @ & o X & & $ @ # & o @ & & & o & & X o & & & + $ & X o & & & o & &   & & & # o & & + & & & o ",
"#.>.<.z., >.>.&.>.-.<.&., 4.<.<.<.1.4.i.< 4.,.<.1.<.4.P 2 4.<.,.<.+.x.4 F 4.<.<.4.+.x.< Y 7.<.<.1.<.x.< ( -.>.2.5.<.z.L -.#.2.>.",
"3 3 3 t % 3 3 3 3 3 3 I % 3 3 3 3 3 3 F % 8 3 3 3 3 8 5 = 8 3 3 3 3 y 1 : 3 3 3 3 3 y < : 3 3 3 3 2 B = 2 3 3 2 3 3 I 2 3 3 3 3 ",
"u u y <.; h u h u g u W ; g u u u u n ! : m u u u u m U > m l u u u ] 5 2 n u u u y $.1 3 n B g u y o.1 8 u u g u u =.F u u g u ",
"% % % %   = % % = = % % . = % % = % % $ . = % % = % = o X = % % = % = X o % % % = % ; X $ % % % % % =   % % % % % % % O % % % % ",
"- & 5 4 4 6 4 7 & * 7 4 5 6 4 7 & , 6 4 6 4 4 7 @ < 6 4 5 6 4 6 o 4 6 4 4 4 6 4 o 6 6 4 4 4 5 , @ 7 4 4 6 4 5 , & 7 4 4 4 6 5 , ",
"/ 1 ' h n n n ' U > ] g u g B } 5 2 ] g z g g o.4 8 N g g g g 1., y ` g g C g 1.< g g n g C g <.; m g n z z g ,.; ] g m z z m k.",
"F = y 3 3 3 3 y 4 ; y 3 3 3 3 u 1 : y 3 3 3 3 g , 2 8 3 3 3 3 B , 3 3 3 3 8 3 Y % 3 3 3 3 3 3 I = w 3 3 3 3 3 G = y 3 3 3 3 8 ~ ",
"F = u 8 y y 8 u 4 : u 8 y y 8 n < > l 3 l 8 3 z ; 2 l y l y 3 z = 3 y y y y 8 z % 8 y y y y y Y % y 8 8 y y y 5 = u 8 8 y y u G ",
"X X O O X o O O X X $ O X o O O . o O O . o $ & . o O o . $ o $ . O O o . O o o X O O o X O O o X O O o o O O o X O O o o O O o ",
",.,.,.>.5 4 >.,.,.,.,.z.< P >.,.<.,.,.x., I ,.,.,.,.,.z., ! ,.,.,.,.,.l.- >.,.,.,.,.>.i., >.,.,.>.,.>.t., 4.k.,.,.,.>.6 1 >.,.,.",
"3 3 3 y 4 ; y 3 8 8 3 u 1 : 8 3 3 3 3 l , 2 3 3 3 3 3 z = 3 3 3 3 3 3 B = 3 3 3 3 3 3 Y * 8 3 3 3 3 8 P = 8 3 3 3 3 y 5 ; y 3 3 ",
"u u u m L : n y u y y ` 4 2 g u l y y $.< 3 g s l l y $.< y l l l u l $., l l l y u u +.; g y y u u g ~ : m y u l y m U : n u u ",
": : ; : & $ : ; : : ; : O % : ; : : ; > o % : : : : ; > o = ; : : : ; < . : ; : : ; : = X : : : : ; : = o : ; : : ; : & $ : ; : ",
"* + < , , , , < & @ 1 , , , , < # # 1 , , , , 1 + * < , , , , < + * , , , < , , + , , < , < , , X , , , , , , - X < , , , , , , ",
"z.; } ` ` $.` } k.1 o.` $.` ` o.e.> o.] ] ] N 2.5 3 } $.$.] m 4.4 y $.` $.` N 4.< g $.$.` ` ` 4.< m ` $.` } ` >.< } m $.$.$.m b.",
"Y * 3 3 3 3 3 3 5 % 8 3 3 3 3 8 5 = 3 3 3 3 3 y 1 ; 3 3 3 3 3 y < : 8 3 3 3 3 r , > 3 3 3 3 3 Y - 3 3 3 3 3 3 I % 3 3 3 3 3 3 +.",
"E = g y u y y u Y ; g y u y u u F : g l l l l m 5 > s l u l y ] < 3 g l l l y $.; 3 u u u u 8 ` ; y y u u u y E = u y u u u 8 4.",
"o   $ $ o o $ $ o   $ o o o $ $ . . $ o X o o $ . X $ o o o o $   X o o o $ o $   o $ o o O $ o   o $ o o o $ o   $ o o o o $ O ",
"i.W ~ ,.< < l.i.! ,.e.l., 5 k./ g.k.! l.* P g./ / g.i.j.& ~ / / ,.! i.i.* k.i.i.k.! k.e.5 g.! i.,.! l.7 P ! / g.,.~ l.* t.g.! g.",
"y y 3 l 5 : l 8 8 y 8 g 1 > u 8 8 y 3 ` 1 3 y 8 8 y 8 N < 3 y y 8 y 8 z ; 8 y y 8 y 8 +.2 y 8 y 8 8 l ~ 3 8 y 8 8 3 g < 3 8 8 8 ",
"y y y g 5 < u 8 y y y m 4 > u y y y 8 ` < 2 u y y y 8 ` , 8 y y y y y W ; y y y 8 y y ,.5 y y y y y l ~ 3 y y y y 8 ` < 3 u y u ",
"> 3 : 3 = % 3 > 2 2 > 3 & = 2 > 2 2 : 3 $ ; 2 > 3 2 : 3 $ : > > 2 2 > 2 o 2 > > 3 > > 2 = 2 > 2 3 > 2 < : 2 2 > 3 : 3 O : 2 > > ",
"& X - * & & - - # X - * & * * - o @ * * & * * - X # - * & * * - X & * * & * * -   & - & & * - &   * * & * - - & X , & & * * - * ",
"z., 2.<.} <.1.1.k.< 4.=.} <.<.4.0.2 4.>.o.<.<.4.7 5 2.$.} <.<.c.4 B 2.<.1.<.$.c.1 C 1.1.1.1.<.7., <.<.<.1.} 1.>., o.<.<.<.$.$.b.",
"G % 3 3 3 3 3 3 F % 8 3 3 3 3 3 5 = 3 3 3 3 3 y 1 ; 8 3 3 3 3 y , : 3 3 3 3 3 y , > 3 3 3 3 3 t = 3 3 3 3 3 3 G % 3 3 3 3 3 2 +.",
",.; g l u u u g Y ; m u u u u n F : n u u u y m 5 2 m u u u y ] 1 3 g u u u u $.< 8 u n u u y 1.; s l u u u y <.; n u u u u u c.",
"$   % $ $ $ $ $ o   % $ $ $ $ % X X % $ $ $ $ % . X % $ $ $ $ %   o $ $ $ $ $ %   $ $ $ $ $ $ $   $ $ $ $ $ $ O   $ $ $ $ $ $ % ",
"P U P U 5 & ! P P I 5 e.4 & e.P P I P ~ , - ~ P U U 9 e.- < e.P 0.P P ~ & 4 I P P P P I # 5 I P I P P 0.& P t.P I P 0.7 & I P P ",
"u y u l ,.; u y u u y u ! ; n u y y u n F : g y l l y m 5 > g u u u y ' 4 2 g u y u y } 1 3 u u y u y } ; y u u y u y +.; u y u ",
"8 8 8 8 Y = y 8 8 8 8 8 ~ = y 8 y 8 8 y P ; u 8 8 8 8 u 4 : y 8 8 8 3 C 1 > y 8 8 8 3 C < 2 y 8 8 8 3 E , 3 8 8 8 8 8 R - y 8 8 ",
"3 3 3 3 3 $ 3 3 3 3 3 3 5 $ 8 3 3 3 3 8 > % 8 3 3 3 3 8 ; ; 3 3 3 3 2 y = : 3 3 8 3 3 8 & 2 3 2 8 3 2 y O 3 3 3 3 3 3 w $ 3 3 3 ",
"o X & & & + & & o X & & o o & & X o & & @ @ & & X o & & @ # & & X O & & X & & &   & & & o & & & X & & & o & & o X & & O o & & O ",
"l.< 4.<.>.=.>.4.g.1 7.+.1.>.<.4.P 4 7.<.1.<.<.c.5 5 4.,.1.>.+.x.1 ~ 4.>.>.>.<.x., +.1.>.1.>.+.z., <.,.<.<.<.<.z., 1.,.<.1.<.<.v.",
"G % 3 3 3 3 3 3 F % 8 3 3 3 3 8 5 = 3 3 3 3 3 8 1 : 3 3 3 3 3 l , : 3 3 3 3 3 y , 2 3 3 3 3 3 t * 3 3 3 3 3 3 I % 3 3 3 3 3 2 ,.",
"E ; B y y y y u ~ ; u y y y y g P : g y y y 3 m 5 > u y l y y m 1 2 s y y y y +., 3 l y u y y +.; y y y y u y ` ; g u u g u u x.",
"; O 2 : : : : > ; $ 2 : > : : 2 = $ 2 : > : : 2 $ = 2 : : : : > $ ; > : : > : > o : > : : : : : o : : > > : : < . = % % % % % ; ",
"! ,.k.i.z., 5 l.g.,.! k.k.t.& z.W k.! k.i.z.* P l.k.W k.W z.4 , >.g./ k.k.k.l.$ W k.k.k.k.! z., 1 z.,.! ,.! k.~ O 7 4 4 4 6 4 4 ",
"y 8 y 8 m 1 : u 8 y y 8 y +.% y 3 y y y 3 } , 3 y y y 3 3 l I = y y y y y 3 +.= 3 y y y y 8 g 5 : u 8 y y y 8 ,.= ` z z z N g c.",
"8 8 8 3 N 1 : 8 8 8 8 8 8 ! % y 3 y 3 y 3 ` , 2 y 3 3 y 3 l 9 % l 3 3 y w 3 +.* 3 8 8 3 8 3 m 4 ; y 8 8 3 y 8 ! % 3 3 3 3 3 3 ,.",
"y y y 8 m < : u 8 y u 8 y Y % u 3 y l y 8 $.= 2 y y y l 3 l F % s y y y y 3 +.% y y y l y 3 m 1 : u 8 y y y y z % l y y u y 8 <.",
"O . o O $ X X o O o X $ o o   O O O . O O O . o O O X X $ $ + X $ O o X O O O . O O O X o O & X X $ O o X O O o   O O O . O O O ",
"x.< 5 >.,.>.>.,.>.e.* >.,.,.>.,.W 4.- ! ,.,.>.,.,.4.7 , 4._ >.,._ _ >.* >._ _ >.,.,.4.< 4 >.,.>.,.,.,.! * >.,.,.>._ +.x.- G ,.,.",
"m 1 : 8 3 3 3 3 8 R % y 3 8 3 3 3 N , 2 3 3 3 3 3 y F % l 3 3 3 3 3 ] * 3 3 3 3 3 3 g 4 : 8 3 3 3 3 3 R % y 3 3 3 3 3 N < > y 3 ",
"$.1 : l y y y 8 y ! % g 8 y y y 3 <.; 3 u y y 8 y g G = g 8 y y y y >.= y y y y y 8 $.4 : l y 3 y y y W % l w 8 y y 3 } < 2 l y ",
"y = ; 3 3 3 3 3 3 5 o 3 2 3 3 3 3 y $ : 3 3 3 3 2 8 < % 3 3 3 3 3 2 w o 2 2 3 3 3 2 y ; = 3 3 3 3 3 3 5 o 3 3 3 3 3 2 w $ : 3 3 ",
"& @ & & o X & & & & O & &   & & & & # & & X + * & & # & & o . & & & & @ & *   @ & & & # O * o . & & & $ # & $   & & & & # & & X ",
"1.1.>.4.! ; c.<.<.<.1.,.v., <.1.<.=.=.<.v.5 5 4.1.,.1.1.=.z.= 4.>.=.=.>.>.v.< r 4.=.=.>.<.4.i.; 4.<.=.1.=.<.v., <.=.=.<.=.>.4.i.",
"3 3 3 8 F % y 3 3 3 3 3 z % 2 3 3 3 3 3 y 2 = 8 3 3 3 3 3 R & 8 3 3 3 3 3 s , : 8 3 3 3 3 3 ! % 8 3 3 3 3 3 ` * 2 3 3 3 3 3 y G ",
"y 8 8 l G = u 8 8 y y 3 =.= 3 y y y y 8 z 5 ; u 8 y 8 8 y W % y 3 y y y 3 ] < > l 3 y 8 8 y U % l y 8 y y 3 =.= 3 8 y y y 8 l ! ",
"3 8 8 y 5 % u 8 8 8 8 8 z & 3 8 8 8 8 3 u < ; l 8 8 y 8 3 w % y 3 y 3 y 3 s ; > y y 3 y 8 y 3 % l 3 8 8 8 8 z & 3 y 8 y 3 8 w 3 "
};
