/* XPM */
static char *ef9d9d0461664c1bb5453efdd924d309LnqcSRlrKPgerhy6[] = {
/* columns rows colors chars-per-pixel */
"64 64 148 2 ",
"   c #171011",
".  c #1E1515",
"X  c #211717",
"o  c #221817",
"O  c #221718",
"+  c #251A1A",
"@  c #2B1D1D",
"#  c #301F1E",
"$  c #2E201E",
"%  c #32221E",
"&  c #38251F",
"*  c #2E1E20",
"=  c #311E21",
"-  c #2F2020",
";  c #342321",
":  c #392623",
">  c #3D2925",
",  c #3E2C29",
"<  c #432D26",
"1  c #492F27",
"2  c #432E29",
"3  c #482F29",
"4  c #473027",
"5  c #493027",
"6  c #46312B",
"7  c #4C332B",
"8  c #4E382F",
"9  c #51362C",
"0  c #54392E",
"q  c #593C2F",
"w  c #5A3C2F",
"e  c #4D3631",
"r  c #4B3631",
"t  c #4D3830",
"y  c #4F3830",
"u  c #4E3831",
"i  c #4F3833",
"p  c #4F3933",
"a  c #4E3932",
"s  c #503A33",
"d  c #523B32",
"f  c #523B36",
"g  c #533D35",
"h  c #543C35",
"j  c #543B32",
"k  c #583B30",
"l  c #583D31",
"z  c #5A3E31",
"x  c #583E33",
"c  c #5A3E32",
"v  c #5C3D30",
"b  c #5C3F32",
"n  c #5E3F33",
"m  c #583F35",
"M  c #5A3E34",
"N  c #5B3F35",
"B  c #5A3E32",
"V  c #563F39",
"C  c #563F39",
"Z  c #583F38",
"A  c #603F32",
"S  c #564037",
"D  c #5F4031",
"F  c #5D4032",
"G  c #5D4033",
"H  c #5F4033",
"J  c #5D4134",
"K  c #5C4035",
"L  c #5F4236",
"P  c #5E4337",
"I  c #5F4337",
"U  c #5D4135",
"Y  c #574039",
"T  c #58403A",
"R  c #5D4338",
"E  c #5F4338",
"W  c #5F4438",
"Q  c #5C433A",
"!  c #624233",
"~  c #634233",
"^  c #604134",
"/  c #614336",
"(  c #624336",
")  c #614436",
"_  c #604437",
"`  c #644536",
"'  c #634334",
"]  c #684737",
"[  c #684737",
"{  c #604438",
"}  c #614539",
"|  c #634639",
" . c #61453A",
".. c #63473B",
"X. c #674738",
"o. c #664739",
"O. c #65463A",
"+. c #64473A",
"@. c #66473B",
"#. c #60473C",
"$. c #61473C",
"%. c #63463A",
"&. c #684738",
"*. c #67483A",
"=. c #67493C",
"-. c #64493F",
";. c #65493D",
":. c #684838",
">. c #694838",
",. c #684839",
"<. c #694939",
"1. c #6A4939",
"2. c #68493B",
"3. c #68493C",
"4. c #684A3E",
"5. c #6C4B3C",
"6. c #6D4C3D",
"7. c #6B4B3C",
"8. c #704F3F",
"9. c #664B41",
"0. c #684C41",
"q. c #6D4D40",
"w. c #6B4E41",
"e. c #704F40",
"r. c #704F40",
"t. c #6D5144",
"y. c #6D5348",
"u. c #755445",
"i. c #735345",
"p. c #785747",
"a. c #755749",
"s. c #735549",
"d. c #785749",
"f. c #76584B",
"g. c #78594C",
"h. c #7B5B4C",
"j. c #7C5B4C",
"k. c #7B5C4E",
"l. c #7D5D4E",
"z. c #7E5E4F",
"x. c #7B5A4C",
"c. c #7C5E51",
"v. c #7F6154",
"b. c #815E4E",
"n. c #80604F",
"m. c #846354",
"M. c #856658",
"N. c #89695A",
/* pixels */
"; : < > < 5 9 ` c q 1.t > 2 9.1.R q > 7 @ : 4 > 6 > 9 9 > = * 3 < c 5 < 1 c i > - : ; 7 ; ; 9 ) :.6 > t 5 8 > % & j.H @ 4 $ 9 $ ",
"; @ > > < 5 7 ^ I ^ 7.6 3 2 9.1.H ^ 7 > @ > 6 > 8 < q 9 < ; # 1 < 7 < > 3 n i ; @ ; , 5 # : 9 =.u.9 $ g < 8 < % & l.:.$ 7 7 8 $ ",
"; @ < > > 5 7 c  .) 1.t 7 6 ..1. .*.2 @ ; > > 9 q 4 9 q < ; * 1 : 7 ; > < N f * * > 8 5 @ > 7 7.j.! $ S < 5 5 $ & z.*.$ 7 9 8 $ ",
"- @ > : < 5 5 c I ^ 1.#.< e @.{ #.F ; + ; > < 9 9 6 9 x : ; @ 3 < 1 ; : < F C * 5 M 9 5 @ < c a.u.H $ R & 0 & % & l.;.% 9 9 S & ",
"; + : ; > 5 5 q W ) 1.$.: s @.9 6.7 $ + & > 4 8 7 7 9 9 ; ; @ < > 5 ; : 2 A Z ; 7 ) 9 4 @ < R f.8.q $ P : 0 & % & l.7.& 7 F S $ ",
"; + > ; < 5 5 9  .I 1.h < j H j :.8 ; $ : , 0 7 4 7 q 9 ; ; @ < > < % : : k Q ; 5 @.9 ; > < =.u.1.9 $ I < w % & & l.t.& 7 9 8 $ ",
"; O : > : 5 5 9  .I 7.t 9 x ^ I :.9 : $ > > | 4 > 9 c 9 ; & @ > ; > = : = { Q : < #.5 @ < 5 g.i.` 7 @ x 7 ~ & % & s.8.> 4 8 0 $ ",
"; + ; ; $ 5 5 9  .I 6.2 q s ^ R W , $ & , 8 #.8 > j ^ 7 ; : # > < : ; > =  .V ; > ) & & < i.R w.` 4 $ q 7 ~ % % : k.6.> 7 F 8 $ ",
"; + $ ; & > 7 7 *.w.9.$ H s H =.s ; + ; ; t.H q > x &.7 ; ; = > 1 : = : < ..r = 3 I @ < 8 u.j i.H $ 4 9 8 9 & & r h.| & 0 0 8 % ",
"; + ; $ < % 5 5 W Q @ ; ` R w w.< * + > g t.W a 2 c @.9 : ; = ; 3 : ; : 7 w.= + y R + s 9 @.=.t.0 @ 0 0 F 4 4 5 W l.S % R S 8 & ",
"; + ; @ 7 % < 5 9.p > 9 6.I q w.; @ $ $ a 7.0.4 2 M  .q : ; ; : 1 > : 1 s 3 + : q ) + x x @.7.w.8 % 9 0 w & > 5 y.l.8 $ <.S 8 & ",
": + ; @ 5 4 % 4 y.6 < t 1.7 q 9.; ; 5 % 6 0 t.> 6  .I n : # ; : 5 : < Z c = + 1 9  .@ j I @.@.w.8 : F 4 0 & > 8 y.a.4 % 8.F S , ",
"; + - $ < s $ h Q ; < 7 6.< w R , - 9 > ; : t.: 7 w.c n : ; < : 7 ; e #.0 2 @ 7 9 =.@ h  .) ^ w.6 < | > 4 > , 9 y.7.4 > a.0 S 4 ",
"> $ @ - % x < + @ 1 > < t.< 9 % r ; d q > - w.; t s.q n ; : 3 : y ; j 9.M 3 # j c w.% S ) I ^ w.> 4 #.< 4 4 4 q Q <.& 7 i.S 7 9 ",
"> % + ; + x W > 5 c 2 > 7.1 5 > , : F ) 9 & Q : M a.9 n @ : 3 , 0 = R ..j e = N I =.: Y I s ) w.: 4 ;.4 > 4 S ` % t.$ S 7.8 8 F ",
"4 $ $ ; + s =.3 5 n 5 3 w.q < : + : F *.q < > > R =.q 9 @ : > > M ; 9.Z Z j # N  .@.6 M H 7 @.1.: 4 P 4 : 4 D 6.& #.+ S ;.8 8 W ",
"< : % ; + 8 @.7 5 ^ 5 5 s.n < : @ :  .` w 5 % 5 1.q ` & ; : < > T ; $.2 w.j @ N 3.{ y 0 I 7 1.@.: 7 #.6 > > I 1.n % . I  .p 8 *.",
"4 6 < @ + 8  .t 5 ) 8 7 p.w > : = < =.^ q 7 ; d t.9 I @ : : > > R : Q ,  .8 = R 3.Z M 8 I 2 7.=.: > > 7 < < ^ 1.~ : X  .7.h 9 *.",
"5 7 5 @ O 8 =.g 7  .6 7 g.A < : ; < 7.c 9 > > 9.q 0 : < : > < < T : Y 2 7 @ % I 5.M M 7 c < 7.7.: % S W < 6 ^ 5.! & @ 1.w.g F =.",
"5 x 9 $ + 8 1.S 9 R 3 5 g.^ 5 ; * 6 =.q 8 ; 7  .F q : < ; ; < > Q > ; C * O ; I w.N c 3 q < 6.1.: $ S S 6 8 ` 5.F & $ i.t.x I 7.",
"> q 9 $ + 6 =.T x I < 3 f.6.1 ; * 8 ~ 9 7 ; 8 q n ^ : < ; ; 4 : Q 6 : : + : ; M e.I N 3 q : i.9 $ $ h h 7 8 *.1.q ; : i.i.a R 7.",
"< 8 9 % @ 3 =.R M ^ < < f.u.3 : ; x q 7 7 # 5 A n 8.; < ; ; 5 : Q t > - % 7 ; j e.{ c , q ; 6.q $ $ d R 7 6 7.` 7 ; , i.i.7 F 6.",
"9 4 9 % @ 6 =.R N ^ 3 < a.i.8 : # j 0 9 7 * y ~ @.p.% > ; ; 7 : C R 7 - ; 9 ; e i.^ k , 5 % w.^ $ $ R W 7 6 7.^ 5 % t u.i.8 P 6.",
"' < q : * 7 =.h R I 3 < g...c > ; 8 q 7 7 * M ^ i.w.: < ; ; 7 ; > 2 - + < M @ 7 e.{ k 2 < ; S @.$ > 7. .7 5 *.c 6 % W i.y.7 ) 6.",
"' : n < > 7 =.h =.c 7 6 g.{ A : @ 8 M 5 5 * #.7.g.> q > * ; c > * + > c n R @ 2 e.@.q 2 > : > 7.$ + 6 -.q 7 ) j 2 % 0.a.0.5 @.5.",
"0 & I 5 f 9 Q r =.F 9 < f.@.N : * 7 R 5 1 * 0.w.g.: n : @ ; ^ 6 * * 6 n @.I $ > 6. .q 2 > : @ w.$ $ + + > 7 ^ q > % y.s.9.8 1.1.",
"@ >  .7 Q s T 2  .n 9 < s.0.k : * 6  .3 1 ; i.s.h 8 ^ > @ ; ^ 7 * * 7 n t.R @ > 6.@.j 2 > ; + e 6 + - : @ 6 ^ 9 ; + 6 s.g 9 1.6.",
"> h  .7 Q j e 2 W H q 6 i.w.q : ; 3 { 7 7 @ i.s.; @.` > @ ; ^ y * * T  .u.W $ ; 7.^ q < : ; * + + + : < : < c 8 ; > + , , x 1.7.",
"< #.^ 5 9.h 2 ,  .H H 9 i.7.8 : = 7 N 7 7 + 7 R @ w.@.> @ ; n s ; % 7.;.l.W ; ; *. .9 > : ; % 5 $ . : 0 7 ; 9 7 > > X O +  .1.6.",
", 9.n 5 9.j 2 ,  .c w s t.t.5 ; ; 7 0 7 3 O O + @ i.7.3 @ @ c Z ; ; t.-.l.*.; $ *.@.R < > : @ 0 t + % S 9 $ 7 5 > < < . . w.1.1.",
"6 w.j < #.9 > , #.c q c 7.i.5 : ; 8 7 7 9 + + + @ k.s.8 @ - 9 Q : ; t.=.u.-.> $  .7.R 2 : : @ 9 S + $ 0 q % < 5 2 6 9 & . r s.1.",
"f 9.0 < #.5 > : W c q  .$.u.5 ; ; f 9 7 1 # @ + + b.u.q @ % 8 R > - 7.-.w.) 6 @  .w.W > : : @ 5 S $ $ 5 N < + > : 6 9 7 + * t 7.",
"T w.9 2 9.2 : ; R q c t.t.u.3 ; ; k q 7 5 : @ + X i.x.h @ = 9 ..; - 9.=.7.) 7 @ Z w.{ 1 ; : @ 9 9 : @ < ! 7 4 % + > q 7 8 X @ 8 ",
"#.9.9 6 { 2 2 ; x q ^ a.s.a.3 ; ; N v 7 3 > @ + . 7.b.{ # ; 8 9.; - w. . .! 9 + M q.{ 7 ; : @ M j 2 @ > ! 9 4 6 > ; H 7 ^ : . @ ",
"#.#.9 e N > 5 ; h q @.b.s.g.5 ; ; { [ 7 < < + @ O Q k.7.% : 9 9.; * =.W ^ H h @ 0 w.Z 9 : : - 9.*.6 @ ; F 5 M ) 0 $ R 5 @.j @ . ",
"9.T 5 t c ; 5 @ R n 6.M.a.j.7 ; ; { w.3 1 5 @ * + g b.1.X : 8 #.; @ =.$.) n c @ 7 q.N 9 ; : ; 9.u.e : @ 0 7 h ` P : R 4 @.I 5 * ",
"f #.r i 7 % 8 + S @.u.m.u.k.9 = ; ..p.7 5 7 @ @ @ * 6 i . & 8 #.> * =.w.) c h $ 7 w.R j ; : - 9.j.Q > + 7 7 h ) I < R 5 =. .7 3 ",
"; : = r > - 8 + f i.n.N.{ x.j @ > y s.k 8 2 @ * ; M - - X @ 7 W < * Q a.^ 9 s ; 9 r.{ Z ; : @ 9.z.t.4 @ > q t ) ^ 5 e 9 ..7.5 c ",
"+ + + 6 ; % e ; ; w.t.$ = m.N @ , 2 3.N 9 , - @ :  . .7 $ $ e g 3 * j b.@.7 7 : 0 u.#.M ; ; @ Q m.s.9 $ % w 8 F ! c , -.9 t.5 ~ ",
"8 - O 6 % - x 6 O + . + O 2 9.@ 7 ; { ..3 + + @ % 7 u.' < ; T 2 6 * 0 M.1.8 8 : v d.#.C ; ; @ T m.f.I > + 0 7 R F H : 7.< 7.5 ^ ",
"n # + , $ $ @.r @ ; , : : @ O + r = : - O + @ - = : e.&.< % , 2 8 - M N.6.7 6 ; ` g. .R : - @ g y.l.i.7 o 7 4 #.x F : R < : 5 ! ",
"w $ + > @ $ w.t * 1 0 9 7 > @ @ , - . O + - ; - ; ; R w.7 @ : 5 5 2 $.N.u.s @ : 1.d.#.R , * @ 6 6 a.n.F + & 7 i.8 F , 5 9 + 5 ! ",
"q # + : @ @ i.g @ 2 9 9 q 9 : + = - + @ : 2 r ; ; ; 7 w.7 $ : q 6 V t.M.i.Z + 2 i.s.^ R 2 + @ @ + y.m.#.$ % 0 ;.x c 8 3 9 @ 5 w ",
"q $ @ : @ @ t.C @ > 7 1 9 7 > # + O + - f 9 #.; * ; 2 w.9 & > s 6 Q s.c.i.R O 5 x...M f 7 + , @ + ; y.a.> % 9 7 w.c q > 0 & 5 A ",
"q ; @ : @ $ 8.S @ : 7 < 7 7 < : . + ; : f c t.> % ; < M H ; < 9 6 T i.s.d.R O 7 b.{ N 2 C @ 2 > $ + + f.6 $ 8 8 x *.q < w & 5 w ",
"9 : $ : @ % R R + : < < 1 < 9 5 @ ; , > r  .c.2 @ ; > 9 P : 6 s 8 ; > * r Z O e s.A R > R ; r > > $ + - - + 5 9 : t.q > 0 & 1 D ",
"9 > $ : % : @ 8 # : < > < : q 9 * , s 3 : w.c.e $ % : 7 P > 8 9 x @ + + . . . O , e j ; { : 6 2 7 % : + o . 4 q % t.0 > 9 > 5 A ",
"9 > $ : $ : : ; @ : < : < : H k * r T 7 - i.0.I & $ : 7 H < 9 9 c & ; > 3 ; * * . . M > Q 2 2 2 7 % 8 < @ . 4 q > #.w > 9 > 9 ~ ",
"q > @ : @ : ; 7 $ , > : > ; ~ n : i Q y @ g.R  .> ; ; 5 M 6 q 7 9 6 > > x 6 > : @ o . o - S , 7 8 % q 0 % o 8 0 4 | x < 4 < 9 ' ",
"9 > @ : @ > : 8 8 > 6 : > : ~ H , 2 9.j # s.h @.< $ : < F 9 9 6 8 t , > 0 6 , : + $ @ + + p : r 8 @ ! ' & o r S 4 W d 6 > < 9 ~ ",
"7 > * : @ : & 6 S : g > : : :.^ 1 : t.R ; r C @.5 $ : < n h c < 7 d 6 - 9 , 6 : + ; 8 : $ + ; a 9 @ w [ 4 + & o.7 R d 6 & 1 9 ~ ",
"> < # ; + & & > S t f , > ; 1.:.9 * s...> @ T 1.5 @ : < M M n < 7 #.d $ 8 > 7 < + ; 7.0 - - + Y R & 1 ~ 4 $ $ #.9 R 8 > & 1 9 ~ ",
"; > = ; # @ < % h t.; C > : %.5.7 * s...2 @ 9.&.7 + ; < n N q < 6 *.w.- 7 < @ 8 + % 7.^ > & @ 6 9.: $ ! 9 & + P q Q 7 > & 4 5 ` ",
": ; @ ; ; + < $ 7 Q i , Z > k r.q * t.#.6 @ 9.` 0 @ & 7 ^ f I < : *.t.> > 8 @ 0 @ $ 6.' F < % ; y.> @ ^ w & + 7 x Q 7 > & 4 9 ' ",
"1 = @ % ; + < $ 2 x c.- 3 2 2 e.c ; 0.#.6 - 0.@.0 @ & 7 n > =.7 + 8 -.6 : 8 : S t + R 6.*.7 > : y.> + c ! < + & 9 $.8 6 $ 1 9 ~ ",
"0 < = ; ; % # & > 6 y.T : r @ 5.{ : Q $.7 - y.1.0 @ & 7 c # 9.j : > : + ; 7 7 + > + + 6 7.x 8 9 R 7 + S ' 7 $ & 9 =.0 4 % 1 w ~ ",
"w 7 # ; % @ @ < $ < h m.; e # 2 j ; f 9.7 : Q g.9 @ ; 7 j @ C I 8 > 7 $ % 9 4 . @ : @ + r g 6 8 > S @ x ! 9 : % 8 9.R 7 - < 9 ' ",
"9 9 : ; & @ % < $ 5 f s.e @ O O @ + 6 9.e : : f.8.@ : 9 q ; , 7.F > 7 $ % H > . @ > r Y r @ . + % , : d 0 F , $ < =.F x - 4 w ' ",
"0 7 : ; % + & & % e R #.9.@ + * - ; , 9.s > @ = j % : 7 9 : + t.S 6 7 % $ n 8 . * ; Q y.c.R > ; $ . o d 7 F 8 $ ; S *.T % 1 0 ' ",
"0 9 < % & @ & @ > + @ * * * - : , < ; =.s > : = + . > 9 N > X , | 8 > & @ 8 t . - : Q i.c.y.a > ; + . d 4 0 P $ % + t t.: < w ~ ",
"9 9 < o + > 9 % @ o @ @ * * 3 ^ ~ 9 $ #.7 > > , : @ > j c < @ & $ ; & : @ > c @ > ; i T d u.#.D S $   , a 7 S % 7 $   8 8 : 0 7 ",
"& 7 < & : 6 ! 5 @ + ; ; = :  .` ~ 9 = M 6 : > 2 2 @ < c q < ; > 0 > $ > @ > x @ ; ; ; : $ & 8 D i.4 + . 6 R 6 : 5 F $ o > & w > ",
": 1 1 < > 5 q H < @ > 6 < , 0.[ @.q ; R , * > 2 2 : 1 N 7 : % % q 9 % > : 9 s @ ; : ; h 4 7 F ~ D S , $ , 6 W % 4 D 9 @ : % 0 < ",
": 1 1 : 4 5 9 ) 5 & t t 3 3 =.[ ^ j ; h > * > > 3 < 0 k 4 ; $ & 7 F : > 6 n g ; - > % 9 > ; 9 ` ! 4 7 , r : > % > a.F @ & $ w & "
};
