/* XPM */
static char *_90d66911b9c437dff6b33d64349ea2bR1K0NnNCmCrB7qYO[] = {
/* columns rows colors chars-per-pixel */
"64 64 155 2 ",
"   c #3B2518",
".  c #442A1B",
"X  c #4A2E1D",
"o  c #4F311F",
"O  c #51311F",
"+  c #4F3120",
"@  c #553522",
"#  c #583723",
"$  c #5D3A25",
"%  c #623D27",
"&  c #683F27",
"*  c #643F28",
"=  c #674027",
"-  c #684127",
";  c #674129",
":  c #6C432B",
">  c #71472D",
",  c #74492E",
"<  c #7A4B2E",
"1  c #674430",
"2  c #6F4932",
"3  c #764B31",
"4  c #7B4E33",
"5  c #7E5033",
"6  c #7F5033",
"7  c #7A5036",
"8  c #7B5036",
"9  c #7B5136",
"0  c #7B5037",
"q  c #7B5137",
"w  c #7E5034",
"e  c #7F5034",
"r  c #7F5035",
"t  c #7C5037",
"y  c #7C5137",
"u  c #7E5137",
"i  c #7D5237",
"p  c #7E5035",
"a  c #75523D",
"s  c #7E5238",
"d  c #7F5238",
"f  c #7F5338",
"g  c #7E5339",
"h  c #7F533A",
"j  c #7A553F",
"k  c #79563F",
"l  c #7C563F",
"z  c #7E5239",
"x  c #7A5540",
"c  c #7C5640",
"v  c #7D5740",
"b  c #7C5640",
"n  c #7F5841",
"m  c #7F5841",
"M  c #804D2F",
"N  c #814F31",
"B  c #814F32",
"V  c #835031",
"C  c #815132",
"Z  c #805033",
"A  c #815033",
"S  c #815133",
"D  c #835032",
"F  c #825033",
"G  c #835133",
"H  c #805034",
"J  c #815034",
"K  c #805134",
"L  c #815134",
"P  c #805135",
"I  c #815135",
"U  c #825134",
"Y  c #835134",
"T  c #825135",
"R  c #835135",
"E  c #815234",
"W  c #805235",
"Q  c #825234",
"!  c #835234",
"~  c #825235",
"^  c #835235",
"/  c #835335",
"(  c #805136",
")  c #825236",
"_  c #835236",
"`  c #835336",
"'  c #835337",
"]  c #845134",
"[  c #845234",
"{  c #855234",
"}  c #845334",
"|  c #845235",
" . c #845335",
".. c #865234",
"X. c #845236",
"o. c #845336",
"O. c #855336",
"+. c #865336",
"@. c #835437",
"#. c #855435",
"$. c #865434",
"%. c #875435",
"&. c #855436",
"*. c #855437",
"=. c #865436",
"-. c #875436",
";. c #865536",
":. c #875536",
">. c #865437",
",. c #875537",
"<. c #835235",
"1. c #895535",
"2. c #895536",
"3. c #895637",
"4. c #8A5737",
"5. c #895637",
"6. c #835338",
"7. c #815539",
"8. c #82553A",
"9. c #83553B",
"0. c #83563A",
"q. c #865438",
"w. c #84563B",
"e. c #84563C",
"r. c #845539",
"t. c #885638",
"y. c #895638",
"u. c #885639",
"i. c #895639",
"p. c #8A5638",
"a. c #8A5738",
"s. c #8B5738",
"d. c #8B5739",
"f. c #895738",
"g. c #8B5839",
"h. c #8C5838",
"j. c #8F5A3A",
"k. c #8C5839",
"l. c #915B3B",
"z. c #855C43",
"x. c #855D44",
"c. c #865D44",
"v. c #865D45",
"b. c #875D45",
"n. c #845D46",
"m. c #855D46",
"M. c #845E46",
"N. c #855E46",
"B. c #845C44",
"V. c #8B6147",
"C. c #8C6146",
"Z. c #8C6047",
"A. c #8C6147",
"S. c #8B6147",
"D. c #896048",
/* pixels */
"; : : ; , , : # ; $ , , : , > $ - : : - $ 3 : : : $ - : ; : , # - : ; % % : > : : % > 3 - : > # : , : * $ ; > : : % - : : : > $ ",
"4 3 H , @.*.*., *., *.H H H f , *.H H 4 3 q.3 H 3 > H q., 4 *., *.r 3 4 4 *.3 H 3 : q.H 3 4 q., *.H H 4 4 3., S 3 >  . .> 4 q.2 ",
"4 , 4 > H H 5 : H 3 @.r 5 r 5 ,  .4 4 3 > s.3 B , : 4 H > 3 4 > H , : 3 , *.3 N : $ 4 H : 4 4 : H 3 H 4 > 3.3 4 3 : 3 6.> 3 4 : ",
", , , 4 g.H H , r 3 H S r 5 r , H > 4 4 4 f 4 H q 4 H g.5 , , ; H : X , 4 6.H 4 - X 4 s.4 3 3 ; r > 4 4 4 6.H S 4 4 H s.4 3 3 * ",
"> r S H *.H *.- N.4 S r 5 r H , 3.> 4 4 ; j 6.> N.3 S H *. .r , *.: $ 3 ; j r : + X : q.H  .4 3 *., 4 4 % l f , M.3 B q. .H B > ",
": r j. .4 3.H - N :  .S r 5 r , 4 H , 3 : S < 4 4 % 5 r H h.r , 5 7 > , ; D < , , $ % 4  .s.H > 4 S 3 , ; D < 4 4 $ 4 r  .s.H > ",
"4 r j.s.4 3.H > v 4 *.5 r r S ,  .H , , S q.8.S m 3 H 5 s.*.S : S H , 3 S e.q.H m 3 3 4 s.q.4 > H H , $ 4 q.H D v 4  .B s. .H : ",
"H 7 4 H r r 3., 8.4 H 7 S 4 7 , S g.3 3 , N.q.4 8.4 H f H 4 r : 5 j., 3 , N.q.4 q.3  .f H 4 f : r g., O , N.e.4 8.4 4 0 B 4 f ; ",
"D x.4  .C.4 $., r , f C. .7 x., H *., , , 3.5 r S , 8.b. .4 b.> H *., , > 3.N H H , 6.b. .4 N.> H *.> # $  .H H r , r C.*.4 N.> ",
"; > 3 3 , > > ; q.: < , , , < : *.H 4 , , l.5 4 H ; > , > < < %  .H 4 , 3 l.4 4 q.* > < > 3 < %  .N 4 % O *.4 < *.% > , , , < # ",
"S r 7 H f H 4.> H : @.r *.5 7 < r 3 8.3 5 *.4 ,  .> 8.f H r 7 , f 3 r 3 4  .4 , H , H H H r H > H 3 5 $ # % > > H > @.r  .4 f : ",
"S N.4 S B.3 *., H , 7 B.S 7 C.: 2 v 4 a , *., , H 3 4 B.H 4 C.> 2 m 3 a , 4 > > H , 7 B.N 0 Z.> 2 B.> # X # 3 > S < 7 B.S 7 b.: ",
"4 B *.H 5 S  ., H , *.S 4 B H : 4 < < : : *., 3 3 : 3.N S *.D ; 4 4 , : : - $ 3 3 : 3.N S  . .; 3 4 , $   @ > , , > *.S H *.D - ",
": 4  ., r @.4 : @.,  .r S S r 4 q.r r q 5 *.4 H , * 4 B ,  .4 , g.r r 4 4 # - q., - 4 S >  .3 3 q.f r : . @ 4 H , % 4 H 3 H 3 , ",
": : 4 > 4 H r , H , } 5 5 r r , r B.8.C., *.4 H , : H 4 > 4 > > 3 B.f D., - @ H , : f 4 > 4 > > 4 z.8.x O > r H , : H 4 : 4 3 : ",
"3 : 4 4 5 r H , H , *.r H 5 5 > H < 4 < , *.r r H > *.4 3 4 , : r 5 4 < , 4 % 5 r > @.4 4 4 , : 4 N 3 4 % r S 5 r > *.4 4 4 3 - ",
"4 > 4 ,  .s.s.3 *., *.H H H H 3 *.H : 3 4 *.5 4 4 , *.H , 4 H ,  .4 : 3 4 q.r 4 4 3  .H , 4 H >  .4 : 4 4 S 4 4 4 , *.H 3 4 r : ",
": : , ; > , : # : % : , , , 3 # - > , - > *.> 4 3 : S S , 4  .>  .4 3 4 4 q.> H > >  .H > 4 *.>  .H H 4 4 *., 5 , > H H , 4  .: ",
"4 : , > 4 4 4 - 4 : 4 4 4 4 4 - 4 > 4 > : s.< H < : 4 H : 3 4 >  .3 : 3 > q.3 S : % 4  .> 3 4 >  .3 H 3 , *., 5 3 : 4 H > 3 4 : ",
"3 3 3 4 j.H H 3 r 3 3.H r r H , @., 7 4 4 f H B 7 3  .g.5 3 3 ; H * X > r r H 4 & X 3 h.4 3 3 ; 4 > 4 4 4 f H S 4 3 H s.4 3 3 ; ",
", S @.H H H q.; N.4  .r r r H , @., 4 4 ; v f > C.3 H H  .H r , s.: $ 4 ; x r : + X ; q. . .N , *., 4 4 % l @.> N.3 S *. . .B > ",
": 5 h.*.4 s.H ; N :  .r r H H > 4 r , , : D < 4 < % r r H s.r , 4 4 : 3 ; D 4 , > $ * 3  .3.4 3 4 H 3 , ; D < 4 4 % 4 H  .h.r > ",
"3 5 j.h.4 3. .> l 7 *.r r H S , H H , , H 8.*.S l 7 H 4 s.q.r : H H 3 3 N 8. . .v 4 < N 3.*.S : S H > $ 4 q.*.S l 4 S 4 s.q.H : ",
"H 7 4 H r H 3.> 8.3 5 r H 4 7 ,  .g., 3 < N.q.4 8.4 H f H 4 r : r s., , < N.e.3 9.3 B t H 4 r : S j., O > N.w.4 8.4 r 7 H 4 q - ",
"H x.4  .C.4 *.3 H < r A.D 7 b.< S *., > , 3.4 H S , 8.A.H 4 N.< H q., > 3 q.5 r S , r C.D 7 N.< H  .> # $ S N r 4 , f C. .4 N.> ",
": , , 3 , > : ; *.: < , , 3 < ;  .H 4 , < l.r 4 H ; > , 3 < < $ *.H 3 3 , j.r 5 @.% , , , , , %  .N 4 % @ q.4 4  .* > , > < 3 # ",
"4 f 4  .f r h.: H , q.f *.r f < f 3 H 3 4 *.4 > H , *.H H 4 4 , r 7 r 3 5 H 4 , H , r f } 4 f , r 3 4 % @ % : >  .> H r  .4 f : ",
"S N.7 N B.4 *., H 3 4 B.N q N.> 3 m 3 x , q.3 > H , 7 B.S 4 C.> 2 l 4 a , 3 3 , H , 7 B.S 7 D.: 2 B.> # X # 4 > H 3 f B.N 0 b.: ",
"3 H s.4 N H *., @., 3.S 5 H S : 4 4 3 > : s.> 3 3 :  .4 S *. .; < 4 , : ; - $ 4 , : *.5 r *.H - 3 4 > $   @ : 3 3 : *.N B  . .* ",
": 4 H > r H 5 ; r 3 H 5 H 4 5 4 q.f 4 4 4  .4 4 3 - 4 r , H 3 3 q.f H 7 4 # *  ., ; 4 r , *.3 3 q.f H 1 . @ 4 H , % 4 H 3 H 3 > ",
"> > B 3 r H *., @., *.*.H H q., f z.q.C.< s.B 6., : H r , H 3 > f z.@.C.< ; # H 3 : *.H , 4 , > r z.q.b @ 3 H H 4 :  .4 > 4 3 : ",
"* ; : % : , : : , % ; ; : > ; % * > ; % ; > % 3 , - 3 ; ; : : % % > > > : ; + : , : : % - : : $ % > 3 > $ : - , : % , > : > : % ",
": H , : 4 4 : 3 , 4 5 : > : 3 4 - 4 > - B 4 : 3 3 4 B > 3 ; 4 4 ; 4 3 : B 4 > , 3 4 4 > > ; 4 r ; 4 4 4 4 4 : H - r *.4 : 4 : 3 ",
":  .4 ,  .H > 3 H , q.4 4 H H  .3 q.4 3 H  .> , H > s.4 4 3 4 q.3  .4 > H  .> 3 H > s.4 4  .H *.3  .H H H  .3 H : *.*.H , r , 7 ",
": 4 3 >  .4 : 4 S 3 3., 3 r 4 H : 4 3 >  .4 $ ; B 3  .> 3 : 3 H > 4 3 > H 4 : 3 H 3 3.> 3 r 3 *., H r 5 5  .3 H : r H S , 4 , 4 ",
"; 3 3 4 3.S 3 4 S H H 4 4 4 > 5 : 3 3 4 s.4 X & 4 H 6.4 , X - N ; , 3 N s.H 3 4 H H r 4 4 4 > H , H r H r  .3 r 3 H H g.4 , , , ",
"> r H *.*.S 3 N., f j = 4 4 , H > r H  . .: X o : r j ; 4 $ : 3., H H @.6.H 4 N.> H v : 4 4 , *., r 5 H r S 4 N.- s. .H H H H , ",
"> r s. .H 4 $ N 4 < S ; , 3 r 4 > r s.q.4 % % > 3 4 N ; , : 5 4 , H g.H r 4 % 4 4 < S ; , , r 5 , H r 5 5  .: S - H *.4 @.h.S : ",
": r *.3.4 H 4 l H 8.q.5 $ , *.H : B q.3.4 3 3 B.H q.q.H 3 > @.H : H *.s.S H 4 x  .q.8.S 3 > H H 3 r r r S H 7 m > H s.4 g.j.5 4 ",
"- r 4 S f 4 4 8.4 q.N.> O , g.H : q 4 H f H 3 6.4 e.N.< 3 , j.H : f 4 H r r 4 8.3 e.N., , 3 g. ., 7 4 H r r 3 8., *.f 4 6.3 4 H ",
"> N.7 D A.r , 5 r H  .# # 3 *.H 3 N.7  .C.r , H H 4 3., , , q.H , N.4  .A.6., 4 H H 3.3 , , @.H , x.7 D C.@., 5 , *.3 A.*.7 N.S ",
"# < , , < > * *.4 4  .@ % 3 H @.% < , > < > *  .4 5 l., , 4 H H % , 3 > < > & 6.4 H l., , 7 5 *.: < , , , < : *.; : , , , , < ; ",
": r r H 8.H :  .> : % @ % N 3 r > r 4  .f H > H , 4 *.4 3 r 3 f 3 z 4  .f H > q.> 4 *.4 3 r 3 5 < f r *.r *., @., 3.H r H r r 4 ",
": b.7 S B.r 3 H : 3 # X # > m 2 > b.0 H B.f 3 H > > 4 , a 4 m 2 : Z.4 N B.4 , H > 3  .< x 3 b 3 > D.7 4 B.7 , @.3 -.4 B.H 4 N.S ",
"- S *.5 4  .> , 3 > #   # 3 4 < ; D *.H 4 *.> , 4 $ - : : 3 4 4 -  .-.B B q.: 3 , > s.: > , 4 4 : S 5 5 H  .3 H , *.H N H *.S 3 ",
"> 4 S , 5 4 % , H 5 @ . : H r q.4 3  ., r 4 * > H - # 4 7 r r q.3 3  ., H 4 % 3 H 4  .4 q H f q., @.S 5 r  ., H ; 5 H S 3  .4 > ",
": , 4 , 4 H : 3 H 5 , O x e.z.4 > > 4 > 4 H : , H # % < b.8.z.4 > > 4 > 4 H : 3 H S *., N.q.B.r , H r 5 r  .3 H , D H 4 , 4 : : ",
"- 3 4 4 4  .> H r r r $ 5 3 4 S : , 4 4 4 *.> H H % 4 , 4 4 B 4 : , 4 3 4 q.> H H H *., 4 3 4 D 3 H 5 r r  ., H >  .H 4 3 5 : > ",
": H 4 3 H *.< 3 4 4 @.4 , : r *.> H 4 3 H  .3 3 4 H  .B 3 : 4  .> H 4 3 H  .3 4 4 4 @.4 4 : 4 *., H r r H q., H , *.*.S , 4 , 3 ",
": q.4 > H S > 3 N > *.4 < H H H >  .4 > B q.> , H > q.3 4 3 4 6.> H 4 > H H > , S > *.4 4 H H q., H 5 r 4 q.3 H > *.@.H , 4 3 4 ",
": 4 3 > H 4 : 3 r 3 q., 3 r 4 H > 4 3 3 6.4 $ : 4 3 3.> 3 : 3 H > 4 3 >  .4 : 3 5 < 3., 3 5 3  ., H r 5 H  .3 H : 4 H S > 3 > 4 ",
"- , 3 4 g.H 3 4 N H f 4 4 4 , S : , 3 4 s.3 X ; B ( f B > X : r ; 3 < 4 s.H 4 4 B H r 4 4 4 > H 3 H r H 4 q.3 q , S H h.4 , 3 , ",
": @.H *.*.S 3 N.> 6.x - 4 4 , @.3 4 H H q.: X + : f v ; 3 % : s., H  . . .S 3 N.> 6.j ; 4 4 > *., r 5 r 5  .4 N.= 3.*.H  .H H > ",
", r g.H r 4 % 4 4 3 S - , , 5 4 3 H s. .4 % # > 3 3 H ; > > B 4 , 4 j.H r 5 % 4 4 < S : 3 > H 4 , H r r 4  .: N ; S *.4  .j.r > ",
"- H q.g.5 S 4 x D  .q.5 $ , H S : H 3.3.r 4 3 m N 6.8.B , >  .H : B *.3.5 H 7 b S 8.q.S , , H 6., r 5 H S  .4 v >  .s.4 g.j.r 3 ",
"- q 4 H 7 r 4 8.4 q.N.> + , j.H : 4 4 S 7 r 4 8.B q.N.< 3 , h.B : t 4 H 7 5 4 q.< q.N., 3 3 s. .3 7 4 H r r 3 e.> 3.r 7 S 4 7 S ",
"> z.0  .b.f , B r H D # # 3  .H , N.4  .C.6.3 5 H 5 3., > , *.6.3 N.4  .C.6., 5 5 4 3., : , q. .< x.7 D C.f , S , 3.4 A. .4 N. .",
"# < 3 > < > * q.4 4 *.+ % 4 S  .% < , > , > - H 4 4 l.3 , 4 H H % < < > , > ; H 4 5 l.< , 4 H H ; < , , , < : *.; : > > , , , ; ",
": H 4 H 6.H > H > : - @ $ 4 3 r , f 4 S r H , H , 4 H 5 3 H 3 f , f 4 D 6.H >  ., 4 *.4 4 H 4 f < r 5 3.r *.4 H > 4.H f  .4 r B ",
": Z.0 N B.q 3 B : 4 # X # 3 m 2 : Z.7 S B.4 3 r > , 3 3 x 4 x 3 : b.q S B.4 3 6.> < *., a 3 m 2 > Z.7 4 B.7 , H , -.4 B.B q N.H ",
"* H 3.4 S 3.: , , > @   $ > 4 4 - H *.r S *.: 3 4 $ - : : 3 < < ;  . .B 4 3.> 3 , , 3.> > , 4 4 : H H H H -.3 H , *.H B B 3.S 3 ",
"> 4  .3 4 4 * 3 r 4 @ . : f r q.3 3 *., N 4 * , H - # 4 0 6.6.q.3 3  ., 4 4 % > H 4 @.4 7 r f q.3 r r H r H , H ; r H B 3 H 3 : ",
": > 4 > 4 q.: 3 H H , # x q.B.7 , 3 4 3 r H > 3 H @ - 3 b.q.z.f > < 4 > 4 q.: 4 @.5 *.< D.@.x.r 3 H H H H s.3  .,  . .4 , 4 > > ",
"* : > : : - % , : , ; @ > , > ; # : : : : : # : > # % % % > > & $ ; 2 : : > $ * : , : $ % > , : # : > , > : # , % > > : : > * % "
};
